{"title":"Damages.S04E06.WEB-DLRip.XviD.avi","uid":6614449,"size":442415104,"categoryP":"video","categoryS":"tv_shows","magnet":"?xt=urn:btih:6fc41c73e8986fc1e5292026e607406940a8745a&amp;dn=Damages.S04E06.WEB-DLRip.XviD.avi&amp;tr=udp%3A%2F%2Ftracker.openbittorrent.com%3A80&amp;tr=udp%3A%2F%2Fopen.demonii.com%3A1337&amp;tr=udp%3A%2F%2Ftracker.coppersurfer.tk%3A6969&amp;tr=udp%3A%2F%2Fexodus.desync.com%3A6969","seeders":1,"leechers":0,"uploader":"starkhalo","files":-1,"time":1313732903,"description":"SCREENSHOTS &lt;a href=&quot;\nhttp://xmages.net/storage/10/1/0/3/c/upload/95c2ccf3.jpg&quot; rel=&quot;nofollow&quot; target=&quot;_NEW&quot;&gt;\nhttp://xmages.net/storage/10/1/0/3/c/upload/95c2ccf3.jpg&lt;/a&gt; &lt;a href=&quot;\nhttp://xmages.net/storage/10/1/0/3/c/upload/5eac56ad.jpg&quot; rel=&quot;nofollow&quot; target=&quot;_NEW&quot;&gt;\nhttp://xmages.net/storage/10/1/0/3/c/upload/5eac56ad.jpg&lt;/a&gt; &lt;a href=&quot;\nhttp://xmages.net/storage/10/1/0/3/c/upload/ee9d13b9.jpg&quot; rel=&quot;nofollow&quot; target=&quot;_NEW&quot;&gt;\nhttp://xmages.net/storage/10/1/0/3/c/upload/ee9d13b9.jpg&lt;/a&gt; &lt;a href=&quot;\nhttp://xmages.net/storage/10/1/0/3/c/upload/2a58e802.jpg&quot; rel=&quot;nofollow&quot; target=&quot;_NEW&quot;&gt;\nhttp://xmages.net/storage/10/1/0/3/c/upload/2a58e802.jpg&lt;/a&gt;\n\nMEDIAINFO\n\nD:\\Video\\Damages.S04E06.WEB-DLRip.XviD.avi\n  General\n    Complete name : D:\\Video\\Damages.S04E06.WEB-DLRip.XviD.avi\n    Format : AVI\n    Format/Info : Audio Video Interleave\n    File size : 422 MiB\n    Duration : 50mn 40s\n    Overall bit rate : 1 164 Kbps\n    Writing application : VirtualDubMod 1.5.10.2 (build 2540/release)\n    Writing library : VirtualDubMod build 2540/release\n  Video #0\n    ID : 0\n    Format : MPEG-4 Visual\n    Format profile : Advanced Simple@L5\n    Format settings, BVOP : 1\n    Format settings, QPel : No\n    Format settings, GMC : No warppoints\n    Format settings, Matrix : Default (MPEG)\n    Codec ID : XVID\n    Codec ID/Hint : XviD\n    Duration : 50mn 40s\n    Bit rate : 1 031 Kbps\n    Width : 720 pixels\n    Height : 400 pixels\n    Display aspect ratio : 16:9\n    Frame rate : 23.976 fps\n    Color space : YUV\n    Chroma subsampling : 4:2:0\n    Bit depth : 8 bits\n    Scan type : Progressive\n    Compression mode : Lossy\n    Bits/(Pixel*Frame) : 0.149\n    Stream size : 374 MiB (89%)\n    Writing library : XviD 1.2.1 (UTC 2008-12-04)\n  Audio #1\n    ID : 1\n    Format : MPEG Audio\n    Format version : Version 1\n    Format profile : Layer 3\n    Codec ID : 55\n    Codec ID/Hint : MP3\n    Duration : 50mn 40s\n    Bit rate mode : Variable\n    Bit rate : 121 Kbps\n    Nominal bit rate : 128 Kbps\n    Channel(s) : 2 channels\n    Sampling rate : 48.0 KHz\n    Compression mode : Lossy\n    Stream size : 43.7 MiB (10%)\n    Alignment : Aligned on interleaves\n    Interleave, duration : 24 ms (0.58 video frame)\n    Interleave, preload duration : 442 ms\n    Writing library : LAME3.98r\n    Encoding settings : -m s -V 4 -q 2 -lowpass 17 --abr 128","torrent":{"xt":"urn:btih:6fc41c73e8986fc1e5292026e607406940a8745a","amp;dn":"Damages.S04E06.WEB-DLRip.XviD.avi","amp;tr":["udp%3A%2F%2Ftracker.openbittorrent.com%3A80","udp%3A%2F%2Fopen.demonii.com%3A1337","udp%3A%2F%2Ftracker.coppersurfer.tk%3A6969","udp%3A%2F%2Fexodus.desync.com%3A6969"],"infoHash":"6fc41c73e8986fc1e5292026e607406940a8745a","infoHashBuffer":{"type":"Buffer","data":[111,196,28,115,232,152,111,193,229,41,32,38,230,7,64,105,64,168,116,90]},"announce":[],"urlList":[]}}